<mxfile host="app.diagrams.net" agent="Mozilla/5.0 (Macintosh; Intel Mac OS X 10_15_7) AppleWebKit/537.36 (KHTML, like Gecko) Chrome/126.0.0.0 Safari/537.36" version="24.7.8">
  <diagram id="dRC86euG13cVq2lLHnlQ" name="Page-1">
    <mxGraphModel dx="2118" dy="2047" grid="0" gridSize="75" guides="1" tooltips="1" connect="1" arrows="1" fold="1" page="0" pageScale="1" pageWidth="900" pageHeight="1125" background="#ffffff" math="0" shadow="0">
      <root>
        <mxCell id="0" />
        <mxCell id="1" parent="0" />
        <mxCell id="tlVu8HYuGR-iey6-OH6Z-1" value="Availability Zone" style="fillColor=none;strokeColor=#147EBA;dashed=1;verticalAlign=top;fontStyle=0;fontColor=#147EBA;whiteSpace=wrap;html=1;" vertex="1" parent="1">
          <mxGeometry x="688" y="-310" width="863" height="230" as="geometry" />
        </mxCell>
        <mxCell id="tlVu8HYuGR-iey6-OH6Z-2" value="Availability Zone" style="fillColor=none;strokeColor=#CC00CC;dashed=1;verticalAlign=top;fontStyle=0;fontColor=#147EBA;whiteSpace=wrap;html=1;" vertex="1" parent="1">
          <mxGeometry x="685" y="81" width="863" height="230" as="geometry" />
        </mxCell>
        <mxCell id="tlVu8HYuGR-iey6-OH6Z-3" value="AWS Cloud" style="points=[[0,0],[0.25,0],[0.5,0],[0.75,0],[1,0],[1,0.25],[1,0.5],[1,0.75],[1,1],[0.75,1],[0.5,1],[0.25,1],[0,1],[0,0.75],[0,0.5],[0,0.25]];outlineConnect=0;gradientColor=none;html=1;whiteSpace=wrap;fontSize=12;fontStyle=0;container=0;pointerEvents=0;collapsible=0;recursiveResize=0;shape=mxgraph.aws4.group;grIcon=mxgraph.aws4.group_aws_cloud_alt;strokeColor=#232F3E;fillColor=none;verticalAlign=top;align=left;spacingLeft=30;fontColor=#232F3E;dashed=0;" vertex="1" parent="1">
          <mxGeometry x="254" y="-432" width="1476" height="864" as="geometry" />
        </mxCell>
        <mxCell id="tlVu8HYuGR-iey6-OH6Z-4" value="Region" style="points=[[0,0],[0.25,0],[0.5,0],[0.75,0],[1,0],[1,0.25],[1,0.5],[1,0.75],[1,1],[0.75,1],[0.5,1],[0.25,1],[0,1],[0,0.75],[0,0.5],[0,0.25]];outlineConnect=0;gradientColor=none;html=1;whiteSpace=wrap;fontSize=12;fontStyle=0;container=0;pointerEvents=0;collapsible=0;recursiveResize=0;shape=mxgraph.aws4.group;grIcon=mxgraph.aws4.group_region;strokeColor=#00A4A6;fillColor=none;verticalAlign=top;align=left;spacingLeft=30;fontColor=#147EBA;dashed=1;" vertex="1" parent="1">
          <mxGeometry x="525" y="-377" width="1167" height="755" as="geometry" />
        </mxCell>
        <mxCell id="tlVu8HYuGR-iey6-OH6Z-5" value="VPC" style="points=[[0,0],[0.25,0],[0.5,0],[0.75,0],[1,0],[1,0.25],[1,0.5],[1,0.75],[1,1],[0.75,1],[0.5,1],[0.25,1],[0,1],[0,0.75],[0,0.5],[0,0.25]];outlineConnect=0;gradientColor=none;html=1;whiteSpace=wrap;fontSize=12;fontStyle=0;container=0;pointerEvents=0;collapsible=0;recursiveResize=0;shape=mxgraph.aws4.group;grIcon=mxgraph.aws4.group_vpc2;strokeColor=#8C4FFF;fillColor=none;verticalAlign=top;align=left;spacingLeft=30;fontColor=#AAB7B8;dashed=0;" vertex="1" parent="1">
          <mxGeometry x="612" y="-347" width="1039" height="685" as="geometry" />
        </mxCell>
        <mxCell id="tlVu8HYuGR-iey6-OH6Z-6" value="Public subnet" style="points=[[0,0],[0.25,0],[0.5,0],[0.75,0],[1,0],[1,0.25],[1,0.5],[1,0.75],[1,1],[0.75,1],[0.5,1],[0.25,1],[0,1],[0,0.75],[0,0.5],[0,0.25]];outlineConnect=0;gradientColor=none;html=1;whiteSpace=wrap;fontSize=12;fontStyle=0;container=1;pointerEvents=0;collapsible=0;recursiveResize=0;shape=mxgraph.aws4.group;grIcon=mxgraph.aws4.group_security_group;grStroke=0;strokeColor=#7AA116;fillColor=#F2F6E8;verticalAlign=top;align=left;spacingLeft=30;fontColor=#248814;dashed=0;" vertex="1" parent="1">
          <mxGeometry x="711" y="-284" width="147" height="185" as="geometry" />
        </mxCell>
        <mxCell id="tlVu8HYuGR-iey6-OH6Z-7" value="NAT GW" style="sketch=0;outlineConnect=0;fontColor=#232F3E;gradientColor=none;fillColor=#8C4FFF;strokeColor=none;dashed=0;verticalLabelPosition=bottom;verticalAlign=top;align=center;html=1;fontSize=12;fontStyle=0;aspect=fixed;pointerEvents=1;shape=mxgraph.aws4.nat_gateway;" vertex="1" parent="tlVu8HYuGR-iey6-OH6Z-6">
          <mxGeometry x="44.5" y="71.15" width="58" height="58" as="geometry" />
        </mxCell>
        <mxCell id="tlVu8HYuGR-iey6-OH6Z-8" value="Private subnet" style="points=[[0,0],[0.25,0],[0.5,0],[0.75,0],[1,0],[1,0.25],[1,0.5],[1,0.75],[1,1],[0.75,1],[0.5,1],[0.25,1],[0,1],[0,0.75],[0,0.5],[0,0.25]];outlineConnect=0;gradientColor=none;html=1;whiteSpace=wrap;fontSize=12;fontStyle=0;container=1;pointerEvents=0;collapsible=0;recursiveResize=0;shape=mxgraph.aws4.group;grIcon=mxgraph.aws4.group_security_group;grStroke=0;strokeColor=#00A4A6;fillColor=#E6F6F7;verticalAlign=top;align=left;spacingLeft=30;fontColor=#147EBA;dashed=0;" vertex="1" parent="1">
          <mxGeometry x="901" y="-284" width="172" height="185" as="geometry" />
        </mxCell>
        <mxCell id="tlVu8HYuGR-iey6-OH6Z-9" value="WP EC2" style="sketch=0;points=[[0,0,0],[0.25,0,0],[0.5,0,0],[0.75,0,0],[1,0,0],[0,1,0],[0.25,1,0],[0.5,1,0],[0.75,1,0],[1,1,0],[0,0.25,0],[0,0.5,0],[0,0.75,0],[1,0.25,0],[1,0.5,0],[1,0.75,0]];outlineConnect=0;fontColor=#232F3E;fillColor=#ED7100;strokeColor=#ffffff;dashed=0;verticalLabelPosition=bottom;verticalAlign=top;align=center;html=1;fontSize=12;fontStyle=0;aspect=fixed;shape=mxgraph.aws4.resourceIcon;resIcon=mxgraph.aws4.ec2;" vertex="1" parent="tlVu8HYuGR-iey6-OH6Z-8">
          <mxGeometry x="57" y="74.5" width="58" height="58" as="geometry" />
        </mxCell>
        <mxCell id="tlVu8HYuGR-iey6-OH6Z-10" value="Private subnet" style="points=[[0,0],[0.25,0],[0.5,0],[0.75,0],[1,0],[1,0.25],[1,0.5],[1,0.75],[1,1],[0.75,1],[0.5,1],[0.25,1],[0,1],[0,0.75],[0,0.5],[0,0.25]];outlineConnect=0;gradientColor=none;html=1;whiteSpace=wrap;fontSize=12;fontStyle=0;container=1;pointerEvents=0;collapsible=0;recursiveResize=0;shape=mxgraph.aws4.group;grIcon=mxgraph.aws4.group_security_group;grStroke=0;strokeColor=#00A4A6;fillColor=#E6F6F7;verticalAlign=top;align=left;spacingLeft=30;fontColor=#147EBA;dashed=0;" vertex="1" parent="1">
          <mxGeometry x="1106" y="-285" width="421" height="185" as="geometry" />
        </mxCell>
        <mxCell id="tlVu8HYuGR-iey6-OH6Z-11" value="MEMCACHED" style="sketch=0;outlineConnect=0;fontColor=#232F3E;gradientColor=none;fillColor=#C925D1;strokeColor=none;dashed=0;verticalLabelPosition=bottom;verticalAlign=top;align=center;html=1;fontSize=12;fontStyle=0;aspect=fixed;pointerEvents=1;shape=mxgraph.aws4.elasticache_for_memcached;" vertex="1" parent="tlVu8HYuGR-iey6-OH6Z-10">
          <mxGeometry x="48" y="75.49999999999997" width="58" height="51.31" as="geometry" />
        </mxCell>
        <mxCell id="tlVu8HYuGR-iey6-OH6Z-12" value="AURORA MYSQL&lt;div&gt;MASTER&lt;/div&gt;" style="sketch=0;points=[[0,0,0],[0.25,0,0],[0.5,0,0],[0.75,0,0],[1,0,0],[0,1,0],[0.25,1,0],[0.5,1,0],[0.75,1,0],[1,1,0],[0,0.25,0],[0,0.5,0],[0,0.75,0],[1,0.25,0],[1,0.5,0],[1,0.75,0]];outlineConnect=0;fontColor=#232F3E;fillColor=#C925D1;strokeColor=#ffffff;dashed=0;verticalLabelPosition=bottom;verticalAlign=top;align=center;html=1;fontSize=12;fontStyle=0;aspect=fixed;shape=mxgraph.aws4.resourceIcon;resIcon=mxgraph.aws4.aurora;" vertex="1" parent="tlVu8HYuGR-iey6-OH6Z-10">
          <mxGeometry x="174" y="75.49499999999998" width="58" height="58" as="geometry" />
        </mxCell>
        <mxCell id="tlVu8HYuGR-iey6-OH6Z-13" value="FILE SYSTEM" style="sketch=0;outlineConnect=0;fontColor=#232F3E;gradientColor=none;fillColor=#7AA116;strokeColor=none;dashed=0;verticalLabelPosition=bottom;verticalAlign=top;align=center;html=1;fontSize=12;fontStyle=0;aspect=fixed;pointerEvents=1;shape=mxgraph.aws4.file_system;" vertex="1" parent="tlVu8HYuGR-iey6-OH6Z-10">
          <mxGeometry x="293" y="77.36499999999997" width="58" height="54.28" as="geometry" />
        </mxCell>
        <mxCell id="tlVu8HYuGR-iey6-OH6Z-14" value="EFS" style="sketch=0;points=[[0,0,0],[0.25,0,0],[0.5,0,0],[0.75,0,0],[1,0,0],[0,1,0],[0.25,1,0],[0.5,1,0],[0.75,1,0],[1,1,0],[0,0.25,0],[0,0.5,0],[0,0.75,0],[1,0.25,0],[1,0.5,0],[1,0.75,0]];outlineConnect=0;fontColor=#232F3E;fillColor=#7AA116;strokeColor=#ffffff;dashed=0;verticalLabelPosition=middle;verticalAlign=middle;align=left;html=1;fontSize=12;fontStyle=0;aspect=fixed;shape=mxgraph.aws4.resourceIcon;resIcon=mxgraph.aws4.elastic_file_system;labelPosition=right;" vertex="1" parent="1">
          <mxGeometry x="1541" y="-25" width="58" height="58" as="geometry" />
        </mxCell>
        <mxCell id="tlVu8HYuGR-iey6-OH6Z-15" value="Public subnet" style="points=[[0,0],[0.25,0],[0.5,0],[0.75,0],[1,0],[1,0.25],[1,0.5],[1,0.75],[1,1],[0.75,1],[0.5,1],[0.25,1],[0,1],[0,0.75],[0,0.5],[0,0.25]];outlineConnect=0;gradientColor=none;html=1;whiteSpace=wrap;fontSize=12;fontStyle=0;container=1;pointerEvents=0;collapsible=0;recursiveResize=0;shape=mxgraph.aws4.group;grIcon=mxgraph.aws4.group_security_group;grStroke=0;strokeColor=#7AA116;fillColor=#F2F6E8;verticalAlign=top;align=left;spacingLeft=30;fontColor=#248814;dashed=0;" vertex="1" parent="1">
          <mxGeometry x="711.25" y="108.5" width="147" height="185" as="geometry" />
        </mxCell>
        <mxCell id="tlVu8HYuGR-iey6-OH6Z-16" value="NAT GW" style="sketch=0;outlineConnect=0;fontColor=#232F3E;gradientColor=none;fillColor=#8C4FFF;strokeColor=none;dashed=0;verticalLabelPosition=bottom;verticalAlign=top;align=center;html=1;fontSize=12;fontStyle=0;aspect=fixed;pointerEvents=1;shape=mxgraph.aws4.nat_gateway;" vertex="1" parent="tlVu8HYuGR-iey6-OH6Z-15">
          <mxGeometry x="44.5" y="72.15" width="58" height="58" as="geometry" />
        </mxCell>
        <mxCell id="tlVu8HYuGR-iey6-OH6Z-17" value="ASG" style="sketch=0;points=[[0,0,0],[0.25,0,0],[0.5,0,0],[0.75,0,0],[1,0,0],[0,1,0],[0.25,1,0],[0.5,1,0],[0.75,1,0],[1,1,0],[0,0.25,0],[0,0.5,0],[0,0.75,0],[1,0.25,0],[1,0.5,0],[1,0.75,0]];outlineConnect=0;fontColor=#232F3E;fillColor=#ED7100;strokeColor=#ffffff;dashed=0;verticalLabelPosition=bottom;verticalAlign=top;align=center;html=1;fontSize=12;fontStyle=0;aspect=fixed;shape=mxgraph.aws4.resourceIcon;resIcon=mxgraph.aws4.auto_scaling2;" vertex="1" parent="1">
          <mxGeometry x="963" y="-25" width="58" height="58" as="geometry" />
        </mxCell>
        <mxCell id="tlVu8HYuGR-iey6-OH6Z-18" value="LOAD BALANCER" style="sketch=0;points=[[0,0,0],[0.25,0,0],[0.5,0,0],[0.75,0,0],[1,0,0],[0,1,0],[0.25,1,0],[0.5,1,0],[0.75,1,0],[1,1,0],[0,0.25,0],[0,0.5,0],[0,0.75,0],[1,0.25,0],[1,0.5,0],[1,0.75,0]];outlineConnect=0;fontColor=#232F3E;fillColor=#8C4FFF;strokeColor=#ffffff;dashed=0;verticalLabelPosition=bottom;verticalAlign=top;align=center;html=1;fontSize=12;fontStyle=0;aspect=fixed;shape=mxgraph.aws4.resourceIcon;resIcon=mxgraph.aws4.elastic_load_balancing;" vertex="1" parent="1">
          <mxGeometry x="756" y="-24.75" width="57.5" height="57.5" as="geometry" />
        </mxCell>
        <mxCell id="tlVu8HYuGR-iey6-OH6Z-19" style="edgeStyle=orthogonalEdgeStyle;rounded=0;orthogonalLoop=1;jettySize=auto;html=1;startArrow=classic;startFill=1;" edge="1" parent="1" source="tlVu8HYuGR-iey6-OH6Z-9" target="tlVu8HYuGR-iey6-OH6Z-11">
          <mxGeometry relative="1" as="geometry">
            <Array as="points">
              <mxPoint x="1051" y="-184" />
              <mxPoint x="1051" y="-184" />
            </Array>
          </mxGeometry>
        </mxCell>
        <mxCell id="tlVu8HYuGR-iey6-OH6Z-20" style="edgeStyle=orthogonalEdgeStyle;rounded=0;orthogonalLoop=1;jettySize=auto;html=1;entryX=0.5;entryY=0;entryDx=0;entryDy=0;entryPerimeter=0;exitX=0.75;exitY=0;exitDx=0;exitDy=0;exitPerimeter=0;startArrow=classic;startFill=1;" edge="1" parent="1" source="tlVu8HYuGR-iey6-OH6Z-9" target="tlVu8HYuGR-iey6-OH6Z-12">
          <mxGeometry relative="1" as="geometry">
            <Array as="points">
              <mxPoint x="1002" y="-229" />
              <mxPoint x="1309" y="-229" />
            </Array>
          </mxGeometry>
        </mxCell>
        <mxCell id="tlVu8HYuGR-iey6-OH6Z-21" style="edgeStyle=orthogonalEdgeStyle;rounded=0;orthogonalLoop=1;jettySize=auto;html=1;startArrow=classic;startFill=1;" edge="1" parent="1" source="tlVu8HYuGR-iey6-OH6Z-9" target="tlVu8HYuGR-iey6-OH6Z-13">
          <mxGeometry relative="1" as="geometry">
            <Array as="points">
              <mxPoint x="1223" y="-245" />
              <mxPoint x="1223" y="-245" />
            </Array>
          </mxGeometry>
        </mxCell>
        <mxCell id="tlVu8HYuGR-iey6-OH6Z-22" value="Private subnet" style="points=[[0,0],[0.25,0],[0.5,0],[0.75,0],[1,0],[1,0.25],[1,0.5],[1,0.75],[1,1],[0.75,1],[0.5,1],[0.25,1],[0,1],[0,0.75],[0,0.5],[0,0.25]];outlineConnect=0;gradientColor=none;html=1;whiteSpace=wrap;fontSize=12;fontStyle=0;container=1;pointerEvents=0;collapsible=0;recursiveResize=0;shape=mxgraph.aws4.group;grIcon=mxgraph.aws4.group_security_group;grStroke=0;strokeColor=#00A4A6;fillColor=#E6F6F7;verticalAlign=top;align=left;spacingLeft=30;fontColor=#147EBA;dashed=0;" vertex="1" parent="1">
          <mxGeometry x="901" y="109.5" width="172" height="185" as="geometry" />
        </mxCell>
        <mxCell id="tlVu8HYuGR-iey6-OH6Z-23" value="WP EC2" style="sketch=0;points=[[0,0,0],[0.25,0,0],[0.5,0,0],[0.75,0,0],[1,0,0],[0,1,0],[0.25,1,0],[0.5,1,0],[0.75,1,0],[1,1,0],[0,0.25,0],[0,0.5,0],[0,0.75,0],[1,0.25,0],[1,0.5,0],[1,0.75,0]];outlineConnect=0;fontColor=#232F3E;fillColor=#ED7100;strokeColor=#ffffff;dashed=0;verticalLabelPosition=bottom;verticalAlign=top;align=center;html=1;fontSize=12;fontStyle=0;aspect=fixed;shape=mxgraph.aws4.resourceIcon;resIcon=mxgraph.aws4.ec2;" vertex="1" parent="tlVu8HYuGR-iey6-OH6Z-22">
          <mxGeometry x="57" y="74.5" width="58" height="58" as="geometry" />
        </mxCell>
        <mxCell id="tlVu8HYuGR-iey6-OH6Z-24" value="Private subnet" style="points=[[0,0],[0.25,0],[0.5,0],[0.75,0],[1,0],[1,0.25],[1,0.5],[1,0.75],[1,1],[0.75,1],[0.5,1],[0.25,1],[0,1],[0,0.75],[0,0.5],[0,0.25]];outlineConnect=0;gradientColor=none;html=1;whiteSpace=wrap;fontSize=12;fontStyle=0;container=1;pointerEvents=0;collapsible=0;recursiveResize=0;shape=mxgraph.aws4.group;grIcon=mxgraph.aws4.group_security_group;grStroke=0;strokeColor=#00A4A6;fillColor=#E6F6F7;verticalAlign=top;align=left;spacingLeft=30;fontColor=#147EBA;dashed=0;" vertex="1" parent="1">
          <mxGeometry x="1106" y="108.5" width="421" height="185" as="geometry" />
        </mxCell>
        <mxCell id="tlVu8HYuGR-iey6-OH6Z-25" value="MEMCACHED" style="sketch=0;outlineConnect=0;fontColor=#232F3E;gradientColor=none;fillColor=#C925D1;strokeColor=none;dashed=0;verticalLabelPosition=bottom;verticalAlign=top;align=center;html=1;fontSize=12;fontStyle=0;aspect=fixed;pointerEvents=1;shape=mxgraph.aws4.elasticache_for_memcached;" vertex="1" parent="tlVu8HYuGR-iey6-OH6Z-24">
          <mxGeometry x="48" y="75.49999999999997" width="58" height="51.31" as="geometry" />
        </mxCell>
        <mxCell id="tlVu8HYuGR-iey6-OH6Z-26" value="AURORA MYSQL&lt;div&gt;REPLICA&lt;/div&gt;" style="sketch=0;points=[[0,0,0],[0.25,0,0],[0.5,0,0],[0.75,0,0],[1,0,0],[0,1,0],[0.25,1,0],[0.5,1,0],[0.75,1,0],[1,1,0],[0,0.25,0],[0,0.5,0],[0,0.75,0],[1,0.25,0],[1,0.5,0],[1,0.75,0]];outlineConnect=0;fontColor=#232F3E;fillColor=#C925D1;strokeColor=#ffffff;dashed=0;verticalLabelPosition=bottom;verticalAlign=top;align=center;html=1;fontSize=12;fontStyle=0;aspect=fixed;shape=mxgraph.aws4.resourceIcon;resIcon=mxgraph.aws4.aurora;" vertex="1" parent="tlVu8HYuGR-iey6-OH6Z-24">
          <mxGeometry x="174" y="75.49499999999998" width="58" height="58" as="geometry" />
        </mxCell>
        <mxCell id="tlVu8HYuGR-iey6-OH6Z-27" value="FILE SYSTEM" style="sketch=0;outlineConnect=0;fontColor=#232F3E;gradientColor=none;fillColor=#7AA116;strokeColor=none;dashed=0;verticalLabelPosition=bottom;verticalAlign=top;align=center;html=1;fontSize=12;fontStyle=0;aspect=fixed;pointerEvents=1;shape=mxgraph.aws4.file_system;" vertex="1" parent="tlVu8HYuGR-iey6-OH6Z-24">
          <mxGeometry x="293" y="77.36499999999997" width="58" height="54.28" as="geometry" />
        </mxCell>
        <mxCell id="tlVu8HYuGR-iey6-OH6Z-28" style="edgeStyle=orthogonalEdgeStyle;rounded=0;orthogonalLoop=1;jettySize=auto;html=1;startArrow=classic;startFill=1;" edge="1" parent="1" source="tlVu8HYuGR-iey6-OH6Z-23" target="tlVu8HYuGR-iey6-OH6Z-25">
          <mxGeometry relative="1" as="geometry">
            <Array as="points">
              <mxPoint x="1051" y="209.5" />
              <mxPoint x="1051" y="209.5" />
            </Array>
          </mxGeometry>
        </mxCell>
        <mxCell id="tlVu8HYuGR-iey6-OH6Z-29" style="edgeStyle=orthogonalEdgeStyle;rounded=0;orthogonalLoop=1;jettySize=auto;html=1;startArrow=classic;startFill=1;exitX=0.75;exitY=0;exitDx=0;exitDy=0;exitPerimeter=0;" edge="1" parent="1" source="tlVu8HYuGR-iey6-OH6Z-23" target="tlVu8HYuGR-iey6-OH6Z-27">
          <mxGeometry relative="1" as="geometry">
            <Array as="points">
              <mxPoint x="1002" y="149" />
              <mxPoint x="1428" y="149" />
            </Array>
          </mxGeometry>
        </mxCell>
        <mxCell id="tlVu8HYuGR-iey6-OH6Z-30" style="edgeStyle=orthogonalEdgeStyle;rounded=0;orthogonalLoop=1;jettySize=auto;html=1;" edge="1" parent="1" source="tlVu8HYuGR-iey6-OH6Z-13" target="tlVu8HYuGR-iey6-OH6Z-14">
          <mxGeometry relative="1" as="geometry" />
        </mxCell>
        <mxCell id="tlVu8HYuGR-iey6-OH6Z-31" style="edgeStyle=orthogonalEdgeStyle;rounded=0;orthogonalLoop=1;jettySize=auto;html=1;entryX=0.5;entryY=1;entryDx=0;entryDy=0;entryPerimeter=0;" edge="1" parent="1" source="tlVu8HYuGR-iey6-OH6Z-27" target="tlVu8HYuGR-iey6-OH6Z-14">
          <mxGeometry relative="1" as="geometry" />
        </mxCell>
        <mxCell id="tlVu8HYuGR-iey6-OH6Z-32" style="edgeStyle=orthogonalEdgeStyle;rounded=0;orthogonalLoop=1;jettySize=auto;html=1;" edge="1" parent="1" source="tlVu8HYuGR-iey6-OH6Z-18" target="tlVu8HYuGR-iey6-OH6Z-46">
          <mxGeometry relative="1" as="geometry">
            <Array as="points">
              <mxPoint x="874" y="4" />
              <mxPoint x="874" y="-181" />
            </Array>
          </mxGeometry>
        </mxCell>
        <mxCell id="tlVu8HYuGR-iey6-OH6Z-33" style="edgeStyle=orthogonalEdgeStyle;rounded=0;orthogonalLoop=1;jettySize=auto;html=1;entryX=-0.013;entryY=0.861;entryDx=0;entryDy=0;entryPerimeter=0;startArrow=classic;startFill=1;" edge="1" parent="1" source="tlVu8HYuGR-iey6-OH6Z-18" target="tlVu8HYuGR-iey6-OH6Z-46">
          <mxGeometry relative="1" as="geometry">
            <Array as="points">
              <mxPoint x="874" y="4" />
              <mxPoint x="874" y="204" />
            </Array>
          </mxGeometry>
        </mxCell>
        <mxCell id="tlVu8HYuGR-iey6-OH6Z-34" style="edgeStyle=orthogonalEdgeStyle;rounded=0;orthogonalLoop=1;jettySize=auto;html=1;entryX=0.25;entryY=0;entryDx=0;entryDy=0;entryPerimeter=0;startArrow=classic;startFill=1;endArrow=none;endFill=0;" edge="1" parent="1" source="tlVu8HYuGR-iey6-OH6Z-7" target="tlVu8HYuGR-iey6-OH6Z-9">
          <mxGeometry relative="1" as="geometry">
            <Array as="points">
              <mxPoint x="785" y="-230" />
              <mxPoint x="973" y="-230" />
            </Array>
          </mxGeometry>
        </mxCell>
        <mxCell id="tlVu8HYuGR-iey6-OH6Z-35" style="edgeStyle=orthogonalEdgeStyle;rounded=0;orthogonalLoop=1;jettySize=auto;html=1;entryX=0.25;entryY=0;entryDx=0;entryDy=0;entryPerimeter=0;startArrow=classic;startFill=1;endArrow=none;endFill=0;" edge="1" parent="1" source="tlVu8HYuGR-iey6-OH6Z-16" target="tlVu8HYuGR-iey6-OH6Z-23">
          <mxGeometry relative="1" as="geometry">
            <Array as="points">
              <mxPoint x="785" y="164" />
              <mxPoint x="973" y="164" />
            </Array>
          </mxGeometry>
        </mxCell>
        <mxCell id="tlVu8HYuGR-iey6-OH6Z-36" value="IGW" style="sketch=0;outlineConnect=0;fontColor=#232F3E;gradientColor=none;fillColor=#8C4FFF;strokeColor=none;dashed=0;verticalLabelPosition=bottom;verticalAlign=top;align=center;html=1;fontSize=12;fontStyle=0;aspect=fixed;pointerEvents=1;shape=mxgraph.aws4.internet_gateway;" vertex="1" parent="1">
          <mxGeometry x="581" y="-25.25" width="58" height="58" as="geometry" />
        </mxCell>
        <mxCell id="tlVu8HYuGR-iey6-OH6Z-37" style="edgeStyle=orthogonalEdgeStyle;rounded=0;orthogonalLoop=1;jettySize=auto;html=1;entryX=0;entryY=0.5;entryDx=0;entryDy=0;entryPerimeter=0;startArrow=classic;startFill=1;" edge="1" parent="1" source="tlVu8HYuGR-iey6-OH6Z-36" target="tlVu8HYuGR-iey6-OH6Z-18">
          <mxGeometry relative="1" as="geometry" />
        </mxCell>
        <mxCell id="tlVu8HYuGR-iey6-OH6Z-38" style="edgeStyle=orthogonalEdgeStyle;rounded=0;orthogonalLoop=1;jettySize=auto;html=1;startArrow=classic;startFill=1;" edge="1" parent="1" source="tlVu8HYuGR-iey6-OH6Z-39" target="tlVu8HYuGR-iey6-OH6Z-36">
          <mxGeometry relative="1" as="geometry" />
        </mxCell>
        <mxCell id="tlVu8HYuGR-iey6-OH6Z-39" value="CLOUDFRONT" style="sketch=0;points=[[0,0,0],[0.25,0,0],[0.5,0,0],[0.75,0,0],[1,0,0],[0,1,0],[0.25,1,0],[0.5,1,0],[0.75,1,0],[1,1,0],[0,0.25,0],[0,0.5,0],[0,0.75,0],[1,0.25,0],[1,0.5,0],[1,0.75,0]];outlineConnect=0;fontColor=#232F3E;fillColor=#8C4FFF;strokeColor=#ffffff;dashed=0;verticalLabelPosition=bottom;verticalAlign=top;align=center;html=1;fontSize=12;fontStyle=0;aspect=fixed;shape=mxgraph.aws4.resourceIcon;resIcon=mxgraph.aws4.cloudfront;" vertex="1" parent="1">
          <mxGeometry x="407" y="-25.25" width="58" height="58" as="geometry" />
        </mxCell>
        <mxCell id="tlVu8HYuGR-iey6-OH6Z-40" style="edgeStyle=orthogonalEdgeStyle;rounded=0;orthogonalLoop=1;jettySize=auto;html=1;startArrow=classic;startFill=1;" edge="1" parent="1" source="tlVu8HYuGR-iey6-OH6Z-41" target="tlVu8HYuGR-iey6-OH6Z-39">
          <mxGeometry relative="1" as="geometry" />
        </mxCell>
        <mxCell id="tlVu8HYuGR-iey6-OH6Z-41" value="R53" style="sketch=0;points=[[0,0,0],[0.25,0,0],[0.5,0,0],[0.75,0,0],[1,0,0],[0,1,0],[0.25,1,0],[0.5,1,0],[0.75,1,0],[1,1,0],[0,0.25,0],[0,0.5,0],[0,0.75,0],[1,0.25,0],[1,0.5,0],[1,0.75,0]];outlineConnect=0;fontColor=#232F3E;fillColor=#8C4FFF;strokeColor=#ffffff;dashed=0;verticalLabelPosition=bottom;verticalAlign=top;align=center;html=1;fontSize=12;fontStyle=0;aspect=fixed;shape=mxgraph.aws4.resourceIcon;resIcon=mxgraph.aws4.route_53;" vertex="1" parent="1">
          <mxGeometry x="294" y="-25.25" width="58" height="58" as="geometry" />
        </mxCell>
        <mxCell id="tlVu8HYuGR-iey6-OH6Z-42" value="USERS" style="sketch=0;outlineConnect=0;fontColor=#232F3E;gradientColor=none;fillColor=#232F3D;strokeColor=none;dashed=0;verticalLabelPosition=bottom;verticalAlign=top;align=center;html=1;fontSize=12;fontStyle=0;aspect=fixed;pointerEvents=1;shape=mxgraph.aws4.users;" vertex="1" parent="1">
          <mxGeometry x="111" y="-35.25" width="78" height="78" as="geometry" />
        </mxCell>
        <mxCell id="tlVu8HYuGR-iey6-OH6Z-43" style="edgeStyle=orthogonalEdgeStyle;rounded=0;orthogonalLoop=1;jettySize=auto;html=1;entryX=0;entryY=0.5;entryDx=0;entryDy=0;entryPerimeter=0;startArrow=classic;startFill=1;" edge="1" parent="1" source="tlVu8HYuGR-iey6-OH6Z-42" target="tlVu8HYuGR-iey6-OH6Z-41">
          <mxGeometry relative="1" as="geometry" />
        </mxCell>
        <mxCell id="tlVu8HYuGR-iey6-OH6Z-44" style="edgeStyle=orthogonalEdgeStyle;rounded=0;orthogonalLoop=1;jettySize=auto;html=1;entryX=0;entryY=0.5;entryDx=0;entryDy=0;entryPerimeter=0;startArrow=classic;startFill=1;" edge="1" parent="1" source="tlVu8HYuGR-iey6-OH6Z-23" target="tlVu8HYuGR-iey6-OH6Z-12">
          <mxGeometry relative="1" as="geometry">
            <Array as="points">
              <mxPoint x="987" y="65" />
              <mxPoint x="1246" y="65" />
              <mxPoint x="1246" y="-181" />
            </Array>
          </mxGeometry>
        </mxCell>
        <mxCell id="tlVu8HYuGR-iey6-OH6Z-45" style="edgeStyle=orthogonalEdgeStyle;rounded=0;orthogonalLoop=1;jettySize=auto;html=1;dashed=1;strokeColor=#999999;" edge="1" parent="1" source="tlVu8HYuGR-iey6-OH6Z-12" target="tlVu8HYuGR-iey6-OH6Z-26">
          <mxGeometry relative="1" as="geometry" />
        </mxCell>
        <mxCell id="tlVu8HYuGR-iey6-OH6Z-46" value="" style="rounded=1;arcSize=10;dashed=1;fillColor=none;gradientColor=none;dashPattern=1 1;strokeWidth=2;strokeColor=#999999;" vertex="1" parent="1">
          <mxGeometry x="935" y="-257" width="113" height="536" as="geometry" />
        </mxCell>
      </root>
    </mxGraphModel>
  </diagram>
</mxfile>
